<svg width="152" height="38" viewBox="0 0 152 38" fill="none" xmlns="http://www.w3.org/2000/svg">
<path d="M19.543 37.1593C19.543 34.1732 19.3631 31.2871 19.6008 28.4344C19.7897 26.1637 21.3227 24.4929 23.0823 23.0954C24.6465 21.8534 25.8662 20.3293 25.8307 18.2586C25.8085 16.9211 25.4374 15.5702 25.0819 14.2638C24.3865 11.6999 23.6289 9.15151 22.8268 6.6209C22.1758 4.5702 20.5939 3.42153 18.641 3.43709C16.7636 3.45042 15.1417 4.60574 14.4863 6.55202C13.8597 8.40499 13.3309 10.2913 12.8066 12.1754C12.64 12.773 12.3867 13.0307 11.7401 12.9841C10.8959 12.9263 10.0449 12.9708 9.02734 12.9708C9.30284 11.931 9.53169 10.9889 9.80274 10.058C10.2249 8.60495 10.6781 7.16301 11.1114 5.71441C12.1067 2.37952 14.9862 0.11108 18.3588 0.00443466C21.8715 -0.106654 24.8798 1.87517 25.984 5.2945C27.1304 8.84046 28.1658 12.4309 29.0789 16.0435C29.8854 19.2406 28.7901 22.0112 26.6527 24.4151C26.3595 24.7462 26.0617 25.1039 25.6929 25.335C22.5047 27.3279 22.538 30.3984 22.8868 33.6533C25.3952 33.6533 27.9058 33.7688 30.3987 33.6089C31.8673 33.5156 32.9048 31.8492 32.7737 30.3295C32.636 28.7432 31.4718 27.519 29.9143 27.4545C28.4768 27.3946 27.0349 27.4412 25.4463 27.4412C26.5505 26.277 27.4837 25.1417 28.5879 24.2107C28.9723 23.8864 29.801 24.1396 30.3987 24.0041C31.2029 23.8242 32.0894 23.6886 32.7426 23.242C33.798 22.5177 34.1846 21.3446 33.8313 20.0916C33.4669 18.7963 32.6738 17.8653 31.1941 17.7765C31.0163 17.7654 30.843 17.6987 30.6919 17.6632C30.4831 16.53 30.2853 15.4458 30.0854 14.3638C32.6338 13.9261 35.2488 15.2347 36.513 17.6032C38.0705 20.5181 37.4773 23.3265 34.6734 26.2215C36.2886 28.5343 36.7307 31.0072 35.4265 33.6111C34.3512 35.7618 32.5693 37.0571 30.1609 37.1304C26.6105 37.2393 23.0579 37.1593 19.543 37.1593Z" fill="#1575E5"/>
<path d="M17.9144 14.255C17.9144 15.4636 17.9144 16.5523 17.9144 17.7343C14.8995 17.7343 11.9467 17.7343 8.99399 17.7343C7.5876 17.7343 6.18121 17.7187 4.77483 17.7321C3.50619 17.7432 3.2418 18.0764 3.51286 19.2695C3.80835 20.5648 4.17495 21.849 4.38602 23.1599C4.50377 23.8864 4.80815 24.0397 5.47691 24.0352C9.36281 24.0086 13.2509 24.0197 17.1368 24.0219C17.3568 24.0219 17.579 24.0419 17.8878 24.0575C17.8878 25.1484 17.8878 26.2304 17.8878 27.4101C13.7353 27.4101 9.60498 27.4101 5.36138 27.4101C5.77685 29.2764 6.16122 31.0294 6.56336 32.7802C6.74777 33.5845 7.33432 33.7533 8.08084 33.7489C10.9314 33.7289 13.7819 33.7422 16.6325 33.7444C17.0324 33.7444 17.4345 33.7444 17.9056 33.7444C17.9056 34.8998 17.9056 35.9573 17.9056 37.1171C17.6034 37.1393 17.2857 37.1793 16.9702 37.1793C13.973 37.1838 10.9736 37.186 7.97641 37.1793C5.37471 37.1726 3.79947 35.9351 3.22847 33.4245C2.1709 28.781 1.08223 24.1463 0.104642 19.4873C-0.488573 16.6656 1.50881 14.2794 4.3638 14.2661C8.83624 14.2394 13.3154 14.255 17.9144 14.255Z" fill="#0A266C"/>
<path d="M17.9144 14.255C17.9144 15.4636 17.9144 16.5523 17.9144 17.7343C14.8995 17.7343 11.9467 17.7343 8.99399 17.7343C7.5876 17.7343 6.18121 17.7187 4.77483 17.7321C3.50619 17.7432 3.2418 18.0764 3.51286 19.2695C3.80835 20.5648 4.17495 21.849 4.38602 23.1599C4.50377 23.8864 4.80815 24.0397 5.47691 24.0352C9.36281 24.0086 13.2509 24.0197 17.1368 24.0219C17.3568 24.0219 17.579 24.0419 17.8878 24.0575C17.8878 25.1484 17.8878 26.2304 17.8878 27.4101C13.7353 27.4101 9.60498 27.4101 5.36138 27.4101C5.77685 29.2764 6.16122 31.0294 6.56336 32.7802C6.74777 33.5845 7.33432 33.7533 8.08084 33.7489C10.9314 33.7289 13.7819 33.7422 16.6325 33.7444C17.0324 33.7444 17.4345 33.7444 17.9056 33.7444C17.9056 34.8998 17.9056 35.9573 17.9056 37.1171C17.6034 37.1393 17.2857 37.1793 16.9702 37.1793C13.973 37.1838 10.9736 37.186 7.97641 37.1793C5.37471 37.1726 3.79947 35.9351 3.22847 33.4245C2.1709 28.781 1.08223 24.1463 0.104642 19.4873C-0.488573 16.6656 1.50881 14.2794 4.3638 14.2661C8.83624 14.2394 13.3154 14.255 17.9144 14.255Z" fill="url(#paint0_linear_1066_2138)"/>
<path d="M24.6842 17.7209C23.9777 17.7209 23.4689 17.7209 22.7913 17.7209C22.7913 18.794 22.829 19.8138 22.7735 20.8269C22.7513 21.2335 22.6402 21.7512 22.3691 22.0045C21.356 22.9599 20.2584 23.8263 19.4053 24.5484C19.4053 21.4713 19.4053 17.9231 19.4053 14.2571C20.7628 14.2571 22.0825 14.2349 23.4 14.2816C23.6022 14.2882 23.9044 14.5748 23.9666 14.7904C24.2332 15.7013 24.4265 16.6344 24.6842 17.7209Z" fill="#1575E5"/>
<path d="M24.6842 17.7209C23.9777 17.7209 23.4689 17.7209 22.7913 17.7209C22.7913 18.794 22.829 19.8138 22.7735 20.8269C22.7513 21.2335 22.6402 21.7512 22.3691 22.0045C21.356 22.9599 20.2584 23.8263 19.4053 24.5484C19.4053 21.4713 19.4053 17.9231 19.4053 14.2571C20.7628 14.2571 22.0825 14.2349 23.4 14.2816C23.6022 14.2882 23.9044 14.5748 23.9666 14.7904C24.2332 15.7013 24.4265 16.6344 24.6842 17.7209Z" fill="url(#paint1_linear_1066_2138)"/>
<g filter="url(#filter0_d_1066_2138)">
<path d="M45.3823 24.5959V12.5917C45.3823 10.932 46.2463 10.4091 47.5649 10.4091H56.318C57.4093 10.4091 58.2051 10.7274 58.2051 11.9096C58.2051 13.0918 57.4093 13.4101 56.318 13.4101H49.1109V16.9569H55.4314C56.409 16.9569 57.182 17.2297 57.182 18.3892C57.182 19.5487 56.409 19.8215 55.4314 19.8215H49.1109V23.7775H56.4999C57.5912 23.7775 58.3869 24.0958 58.3869 25.278C58.3869 26.4602 57.5912 26.7785 56.4999 26.7785H47.5649C46.2463 26.7785 45.3823 26.2556 45.3823 24.5959Z" fill="#0A2147"/>
<path d="M58.4454 21.072C58.4454 17.2524 60.6052 14.5924 64.6749 14.5924C67.4486 14.5924 69.5175 16.1611 69.5175 17.7071C69.5175 18.662 68.8127 19.1394 67.9715 19.1394C66.4028 19.1394 66.9711 17.1842 64.5839 17.1842C63.288 17.1842 61.7647 18.0709 61.7647 21.072C61.7647 23.1409 62.7424 24.4823 64.5612 24.4823C66.8802 24.4823 66.38 22.3451 68.1306 22.3451C68.9719 22.3451 69.5175 22.959 69.5175 23.6183C69.5175 25.0734 67.8806 27.0741 64.4703 27.0741C60.3779 27.0741 58.4454 24.5505 58.4454 21.072Z" fill="#0A2147"/>
<path d="M72.7484 20.8219C72.7484 22.8453 73.5896 24.6187 75.5676 24.6187C77.5456 24.6187 78.3868 22.8453 78.3868 20.8219C78.3868 18.662 77.5001 17.0478 75.5676 17.0478C73.6351 17.0478 72.7484 18.662 72.7484 20.8219ZM69.4291 20.8219C69.4291 17.3206 71.5662 14.5924 75.5676 14.5924C79.569 14.5924 81.7061 17.3206 81.7061 20.8219C81.7061 24.1412 80.0919 27.0741 75.5676 27.0741C71.0433 27.0741 69.4291 24.1412 69.4291 20.8219Z" fill="#0A2147"/>
<path d="M82.8953 24.5959V12.5917C82.8953 10.932 83.7593 10.4091 85.0779 10.4091H90.0342C92.7625 10.4091 96.0136 11.0229 96.0136 14.6378C96.0136 16.0247 95.2633 17.3434 93.7173 17.9572V18.0027C95.4452 18.4574 96.582 19.6851 96.582 21.9359C96.582 25.3689 93.7855 26.7785 90.5571 26.7785H85.0779C83.7593 26.7785 82.8953 26.2556 82.8953 24.5959ZM86.6239 19.5032V23.9139H89.7614C91.2164 23.9139 92.8534 23.6183 92.8534 21.7313C92.8534 19.7533 91.1255 19.5032 89.3067 19.5032H86.6239ZM86.6239 13.1373V17.1387H89.6932C91.4438 17.1387 92.285 16.4339 92.285 15.138C92.285 13.5693 90.9664 13.1373 89.5795 13.1373H86.6239Z" fill="#0A2147"/>
<path d="M108.556 18.0027V23.5728C108.556 24.9597 108.897 25.278 108.897 25.8009C108.897 26.5512 108.192 27.0741 107.397 27.0741C105.964 27.0741 105.487 26.1647 105.441 25.1416C104.146 26.5739 102.645 27.0741 100.894 27.0741C99.0074 27.0741 97.1431 25.7782 97.1431 23.6865C97.1431 20.9355 99.2347 20.1625 101.781 19.867L103.805 19.6396C104.6 19.5487 105.237 19.3668 105.237 18.4119C105.237 17.457 104.259 17.0478 103.145 17.0478C100.69 17.0478 100.622 18.8666 99.303 18.8666C98.4617 18.8666 97.8934 18.2755 97.8934 17.5934C97.8934 16.2748 99.7577 14.5924 103.168 14.5924C106.351 14.5924 108.556 15.6155 108.556 18.0027ZM105.237 22.4815V21.1856C104.873 21.5267 104.191 21.6403 103.805 21.7085L102.6 21.8904C101.213 22.095 100.462 22.527 100.462 23.5274C100.462 24.2776 101.167 24.8915 102.304 24.8915C104.123 24.8915 105.237 23.7093 105.237 22.4815Z" fill="#0A2147"/>
<path d="M109.541 18.2982C109.541 15.5927 112.224 14.5924 114.52 14.5924C117.044 14.5924 119.59 15.5927 119.59 17.116C119.59 17.889 119.067 18.5711 118.203 18.5711C116.908 18.5711 116.862 17.0478 114.77 17.0478C113.611 17.0478 112.861 17.3661 112.861 18.0709C112.861 18.8439 113.611 19.0258 114.634 19.2531L116.021 19.5714C117.908 20.0034 120.159 20.7991 120.159 23.1181C120.159 25.8236 117.544 27.0741 115.043 27.0741C112.042 27.0741 109.541 25.7327 109.541 24.0958C109.541 23.3682 109.951 22.7089 110.883 22.7089C112.315 22.7089 112.451 24.7551 114.907 24.7551C116.089 24.7551 116.839 24.2322 116.839 23.5501C116.839 22.7089 116.112 22.5725 114.93 22.2769L112.974 21.7995C111.042 21.322 109.541 20.5263 109.541 18.2982Z" fill="#0A2147"/>
<path d="M120.911 25.4144V11.7732C120.911 10.6819 121.571 10.1135 122.571 10.1135C123.572 10.1135 124.231 10.6819 124.231 11.7732V19.3213L127.914 15.229C128.255 14.8652 128.687 14.5924 129.187 14.5924C129.937 14.5924 130.756 15.2517 130.756 16.0929C130.756 16.684 130.551 16.8659 130.256 17.1842L127.8 19.7533L131.256 24.3913C131.37 24.5505 131.597 24.9142 131.597 25.4599C131.597 26.3011 130.915 27.0741 130.028 27.0741C129.21 27.0741 128.778 26.6649 128.528 26.3011L125.39 21.8677L124.231 22.8908V25.4144C124.231 26.5057 123.572 27.0741 122.571 27.0741C121.571 27.0741 120.911 26.5057 120.911 25.4144Z" fill="#0A2147"/>
<path d="M142.081 21.4585H134.578C134.578 23.2091 135.715 24.4823 137.647 24.4823C140.148 24.4823 140.148 22.8453 141.489 22.8453C142.285 22.8453 142.854 23.5274 142.854 24.1412C142.854 26.1419 139.648 27.0741 137.647 27.0741C133.009 27.0741 131.259 23.9366 131.259 21.0492C131.259 17.1842 133.6 14.5924 137.534 14.5924C141.353 14.5924 143.536 17.2979 143.536 20.0261C143.536 21.1629 143.195 21.4585 142.081 21.4585ZM134.578 19.5487H140.398C140.216 18.0254 139.08 16.9114 137.602 16.9114C135.942 16.9114 134.942 17.9345 134.578 19.5487Z" fill="#0A2147"/>
<path d="M145.18 24.1185V17.0705H144.611C143.679 17.0705 143.292 16.7068 143.292 15.9792C143.292 15.2517 143.679 14.8879 144.611 14.8879H145.18V12.8645C145.18 11.7732 145.839 11.2048 146.839 11.2048C147.84 11.2048 148.499 11.7732 148.499 12.8645V14.8879H149.499C150.477 14.8879 151 15.1835 151 15.9792C151 16.775 150.477 17.0705 149.499 17.0705H148.499V23.7093C148.499 24.2094 148.772 24.4823 149.363 24.4823H149.84C150.568 24.4823 151 24.8915 151 25.5963C151 26.5512 150.181 27.0741 148.59 27.0741C146.18 27.0741 145.18 26.0737 145.18 24.1185Z" fill="#0A2147"/>
</g>
<defs>
<filter id="filter0_d_1066_2138" x="44.6616" y="10.1135" width="107.059" height="18.5821" filterUnits="userSpaceOnUse" color-interpolation-filters="sRGB">
<feFlood flood-opacity="0" result="BackgroundImageFix"/>
<feColorMatrix in="SourceAlpha" type="matrix" values="0 0 0 0 0 0 0 0 0 0 0 0 0 0 0 0 0 0 127 0" result="hardAlpha"/>
<feOffset dy="0.900867"/>
<feGaussianBlur stdDeviation="0.360347"/>
<feComposite in2="hardAlpha" operator="out"/>
<feColorMatrix type="matrix" values="0 0 0 0 0 0 0 0 0 0 0 0 0 0 0 0 0 0 0.25 0"/>
<feBlend mode="normal" in2="BackgroundImageFix" result="effect1_dropShadow_1066_2138"/>
<feBlend mode="normal" in="SourceGraphic" in2="effect1_dropShadow_1066_2138" result="shape"/>
</filter>
<linearGradient id="paint0_linear_1066_2138" x1="8.95722" y1="14.2505" x2="8.95722" y2="37.1835" gradientUnits="userSpaceOnUse">
<stop stop-color="#0A266C"/>
<stop offset="1" stop-color="#1575E5"/>
</linearGradient>
<linearGradient id="paint1_linear_1066_2138" x1="22.0448" y1="14.2518" x2="22.0448" y2="24.5484" gradientUnits="userSpaceOnUse">
<stop stop-color="#0A266C"/>
<stop offset="1" stop-color="#1575E5"/>
</linearGradient>
</defs>
</svg>
