<svg width="16" height="16" viewBox="0 0 16 16" fill="none" xmlns="http://www.w3.org/2000/svg">
<g clip-path="url(#clip0_295_2726)">
<path d="M6.62479 10.3333C6.56527 10.1026 6.44502 9.89206 6.27653 9.72358C6.10805 9.5551 5.8975 9.43485 5.66679 9.37533L1.57679 8.32066C1.50701 8.30085 1.4456 8.25883 1.40186 8.20096C1.35813 8.14309 1.33447 8.07253 1.33447 7.99999C1.33447 7.92746 1.35813 7.8569 1.40186 7.79903C1.4456 7.74116 1.50701 7.69913 1.57679 7.67933L5.66679 6.62399C5.89742 6.56453 6.10792 6.44438 6.27639 6.27602C6.44486 6.10766 6.56517 5.89725 6.62479 5.66666L7.67946 1.57666C7.69906 1.50661 7.74105 1.44489 7.799 1.40092C7.85696 1.35696 7.92771 1.33316 8.00046 1.33316C8.0732 1.33316 8.14395 1.35696 8.20191 1.40092C8.25987 1.44489 8.30185 1.50661 8.32146 1.57666L9.37546 5.66666C9.43497 5.89737 9.55523 6.10792 9.72371 6.27641C9.89219 6.44489 10.1027 6.56514 10.3335 6.62466L14.4235 7.67866C14.4938 7.69806 14.5558 7.74 14.6 7.79804C14.6442 7.85609 14.6682 7.92703 14.6682 7.99999C14.6682 8.07295 14.6442 8.1439 14.6 8.20194C14.5558 8.25999 14.4938 8.30193 14.4235 8.32133L10.3335 9.37533C10.1027 9.43485 9.89219 9.5551 9.72371 9.72358C9.55523 9.89206 9.43497 10.1026 9.37546 10.3333L8.32079 14.4233C8.30118 14.4934 8.2592 14.5551 8.20124 14.5991C8.14328 14.643 8.07254 14.6668 7.99979 14.6668C7.92704 14.6668 7.85629 14.643 7.79834 14.5991C7.74038 14.5551 7.69839 14.4934 7.67879 14.4233L6.62479 10.3333Z" stroke="#1575E5" stroke-width="1.33333" stroke-linecap="round" stroke-linejoin="round"/>
<path d="M13.3335 2V4.66667" stroke="#1575E5" stroke-width="1.33333" stroke-linecap="round" stroke-linejoin="round"/>
<path d="M14.6667 3.33334H12" stroke="#1575E5" stroke-width="1.33333" stroke-linecap="round" stroke-linejoin="round"/>
<path d="M2.6665 11.3333V12.6667" stroke="#1575E5" stroke-width="1.33333" stroke-linecap="round" stroke-linejoin="round"/>
<path d="M3.33333 12H2" stroke="#1575E5" stroke-width="1.33333" stroke-linecap="round" stroke-linejoin="round"/>
</g>
<defs>
<clipPath id="clip0_295_2726">
<rect width="16" height="16" fill="white"/>
</clipPath>
</defs>
</svg>
