<svg width="32" height="32" viewBox="0 0 32 32" fill="none" xmlns="http://www.w3.org/2000/svg">
<g clip-path="url(#clip0_1066_5334)">
<rect width="32" height="32" rx="8" fill="white"/>
<path fill-rule="evenodd" clip-rule="evenodd" d="M18.764 9.87361C19.4202 9.11311 19.8625 8.05389 19.7414 7C18.7958 7.036 17.6519 7.60404 16.9739 8.36364C16.365 9.03773 15.8335 10.1148 15.9764 11.148C17.0312 11.2263 18.1078 10.635 18.764 9.87361ZM21.1293 16.5626C21.1557 19.2869 23.6229 20.1931 23.6502 20.2048C23.6302 20.2687 23.2562 21.4961 22.3506 22.7651C21.5671 23.8613 20.7543 24.953 19.4739 24.9764C18.2161 24.9989 17.8111 24.2619 16.3723 24.2619C14.9344 24.2619 14.4848 24.9529 13.2944 24.9988C12.0585 25.0429 11.1165 23.8129 10.3275 22.7203C8.71301 20.4856 7.47985 16.4052 9.1362 13.6512C9.95892 12.2841 11.4287 11.4171 13.025 11.3955C14.2381 11.373 15.3839 12.1777 16.1257 12.1777C16.8674 12.1777 18.2598 11.2102 19.7232 11.3524C20.3357 11.3767 22.0558 11.589 23.1597 13.1379C23.0705 13.191 21.1075 14.2856 21.1293 16.5626Z" fill="black"/>
<rect x="0.5" y="0.5" width="31" height="31" rx="7.5" stroke="#D9E0FB"/>
</g>
<defs>
<clipPath id="clip0_1066_5334">
<rect width="32" height="32" rx="8" fill="white"/>
</clipPath>
</defs>
</svg>
