<svg width="40" height="40" viewBox="0 0 40 40" fill="none" xmlns="http://www.w3.org/2000/svg">
<path d="M20 35.9998C21.9764 34.1718 23.224 31.565 23.224 28.6666C23.224 25.7682 21.9764 23.161 20 21.333H28.6668C32.716 21.333 36 24.617 36 28.6666C36 32.7158 32.716 35.9998 28.6668 35.9998H20Z" fill="#1464C2"/>
<path d="M4 35.9998C5.9764 34.1718 7.224 31.565 7.224 28.6666C7.224 25.7682 5.9764 23.161 4 21.333H12.6668C16.7148 21.333 19.9988 24.617 19.9988 28.6666C19.9988 32.7158 16.7148 35.9998 12.6668 35.9998H4Z" fill="#1575E5"/>
<path d="M20 18.6668C21.9764 16.8384 23.224 14.232 23.224 11.3336C23.224 8.4352 21.9764 5.828 20 4H28.6668C32.716 4 36 7.2836 36 11.3332C36 15.3828 32.716 18.6664 28.6668 18.6664L20 18.6668Z" fill="#A7C9FF"/>
<path d="M4 18.6668C5.9764 16.8384 7.224 14.232 7.224 11.3336C7.224 8.4352 5.9764 5.828 4 4H12.6668C16.7148 4 19.9988 7.2836 19.9988 11.3332C19.9988 15.3828 16.7148 18.6664 12.6668 18.6664L4 18.6668Z" fill="#D1E3FF"/>
</svg>
