<svg width="40" height="40" viewBox="0 0 40 40" fill="none" xmlns="http://www.w3.org/2000/svg">
<g clip-path="url(#clip0_299_1360)">
<path d="M17.1095 16.9385C15.5779 16.2354 13.8805 15.8335 12.0835 15.8335C5.40996 15.8335 0 21.2435 0 27.9165C0 34.59 5.40996 40 12.0835 40C13.8805 40 15.5775 39.598 17.1095 38.895C14.2675 36.097 12.5 32.2105 12.5 27.9165C12.5 23.623 14.2675 19.7365 17.1095 16.9385Z" fill="#1575E5"/>
<path d="M38.8945 22.8889C36.0965 25.7324 32.2101 27.5 27.916 27.5C23.6226 27.5 19.736 25.7325 16.938 22.8889C16.235 24.4219 15.833 26.1194 15.833 27.9165C15.833 34.59 21.243 40 27.916 40C34.5895 40 39.9995 34.59 39.9995 27.9165C39.9995 26.1195 39.5976 24.4224 38.8945 22.8889Z" fill="#1464C2"/>
<path d="M27.9162 0C26.1192 0 24.4222 0.401953 22.8887 1.10498C25.7321 3.90293 27.4997 7.78945 27.4997 12.0835C27.4997 16.377 25.7322 20.2635 22.8887 23.0615C24.4217 23.7645 26.1191 24.1665 27.9162 24.1665C34.5897 24.1665 39.9997 18.7565 39.9997 12.0835C39.9997 5.40996 34.5897 0 27.9162 0Z" fill="#A7C9FF"/>
<path d="M12.0835 0C5.40996 0 0 5.40996 0 12.0835C0 13.8805 0.401953 15.5775 1.10498 17.1095C3.90303 14.2675 7.78945 12.5 12.0835 12.5C16.377 12.5 20.2635 14.2675 23.0615 17.1095C23.7645 15.5779 24.1665 13.8805 24.1665 12.0835C24.1665 5.40996 18.7565 0 12.0835 0Z" fill="#D1E3FF"/>
</g>
<defs>
<clipPath id="clip0_299_1360">
<rect width="40" height="40" fill="white"/>
</clipPath>
</defs>
</svg>
