<svg width="152" height="38" viewBox="0 0 152 38" fill="none" xmlns="http://www.w3.org/2000/svg">
<path d="M19.543 37.1593C19.543 34.1732 19.3631 31.2871 19.6008 28.4344C19.7897 26.1637 21.3227 24.4929 23.0823 23.0954C24.6465 21.8534 25.8662 20.3293 25.8307 18.2586C25.8085 16.9211 25.4374 15.5702 25.0819 14.2638C24.3865 11.6999 23.6289 9.15151 22.8268 6.6209C22.1758 4.5702 20.5939 3.42153 18.641 3.43709C16.7636 3.45042 15.1417 4.60574 14.4863 6.55202C13.8597 8.40499 13.3309 10.2913 12.8066 12.1754C12.64 12.773 12.3867 13.0307 11.7401 12.9841C10.8959 12.9263 10.0449 12.9708 9.02734 12.9708C9.30284 11.931 9.53169 10.9889 9.80274 10.058C10.2249 8.60495 10.6781 7.16301 11.1114 5.71441C12.1067 2.37952 14.9862 0.11108 18.3588 0.00443466C21.8715 -0.106654 24.8798 1.87517 25.984 5.2945C27.1304 8.84046 28.1658 12.4309 29.0789 16.0435C29.8854 19.2406 28.7901 22.0112 26.6527 24.4151C26.3595 24.7462 26.0617 25.1039 25.6929 25.335C22.5047 27.3279 22.538 30.3984 22.8868 33.6533C25.3952 33.6533 27.9058 33.7688 30.3987 33.6089C31.8673 33.5156 32.9048 31.8492 32.7737 30.3295C32.636 28.7432 31.4718 27.519 29.9143 27.4545C28.4768 27.3946 27.0349 27.4412 25.4463 27.4412C26.5505 26.277 27.4837 25.1417 28.5879 24.2107C28.9723 23.8864 29.801 24.1396 30.3987 24.0041C31.2029 23.8242 32.0894 23.6886 32.7426 23.242C33.798 22.5177 34.1846 21.3446 33.8313 20.0916C33.4669 18.7963 32.6738 17.8653 31.1941 17.7765C31.0163 17.7654 30.843 17.6987 30.6919 17.6632C30.4831 16.53 30.2853 15.4458 30.0854 14.3638C32.6338 13.9261 35.2488 15.2347 36.513 17.6032C38.0705 20.5181 37.4773 23.3265 34.6734 26.2215C36.2886 28.5343 36.7307 31.0072 35.4265 33.6111C34.3512 35.7618 32.5693 37.0571 30.1609 37.1304C26.6105 37.2393 23.0579 37.1593 19.543 37.1593Z" fill="white"/>
<path d="M17.9144 14.255C17.9144 15.4636 17.9144 16.5523 17.9144 17.7343C14.8995 17.7343 11.9467 17.7343 8.99399 17.7343C7.5876 17.7343 6.18121 17.7188 4.77483 17.7321C3.50619 17.7432 3.2418 18.0765 3.51286 19.2696C3.80835 20.5649 4.17495 21.849 4.38602 23.1599C4.50377 23.8864 4.80815 24.0397 5.47691 24.0353C9.36281 24.0086 13.2509 24.0197 17.1368 24.0219C17.3568 24.0219 17.579 24.0419 17.8878 24.0575C17.8878 25.1484 17.8878 26.2304 17.8878 27.4102C13.7353 27.4102 9.60498 27.4102 5.36138 27.4102C5.77685 29.2765 6.16122 31.0294 6.56336 32.7802C6.74777 33.5845 7.33432 33.7534 8.08084 33.7489C10.9314 33.7289 13.7819 33.7422 16.6325 33.7445C17.0324 33.7445 17.4345 33.7445 17.9056 33.7445C17.9056 34.8998 17.9056 35.9574 17.9056 37.1171C17.6034 37.1393 17.2857 37.1793 16.9702 37.1793C13.973 37.1838 10.9736 37.186 7.97641 37.1793C5.37471 37.1727 3.79947 35.9351 3.22847 33.4245C2.1709 28.781 1.08223 24.1464 0.104642 19.4873C-0.488573 16.6656 1.50881 14.2794 4.3638 14.2661C8.83624 14.2394 13.3154 14.255 17.9144 14.255Z" fill="white"/>
<path d="M24.6842 17.721C23.9777 17.721 23.4689 17.721 22.7913 17.721C22.7913 18.7941 22.829 19.8139 22.7735 20.827C22.7513 21.2336 22.6402 21.7513 22.3691 22.0046C21.356 22.96 20.2584 23.8265 19.4053 24.5485C19.4053 21.4714 19.4053 17.9232 19.4053 14.2572C20.7628 14.2572 22.0825 14.235 23.4 14.2817C23.6022 14.2883 23.9044 14.575 23.9666 14.7905C24.2332 15.7014 24.4265 16.6345 24.6842 17.721Z" fill="white"/>
<g filter="url(#filter0_d_1066_5380)">
<path d="M45.3823 24.5957V12.5914C45.3823 10.9318 46.2463 10.4088 47.5649 10.4088H56.318C57.4093 10.4088 58.2051 10.7271 58.2051 11.9094C58.2051 13.0916 57.4093 13.4099 56.318 13.4099H49.1109V16.9566H55.4314C56.409 16.9566 57.182 17.2294 57.182 18.389C57.182 19.5485 56.409 19.8213 55.4314 19.8213H49.1109V23.7772H56.4999C57.5912 23.7772 58.3869 24.0955 58.3869 25.2778C58.3869 26.46 57.5912 26.7783 56.4999 26.7783H47.5649C46.2463 26.7783 45.3823 26.2554 45.3823 24.5957Z" fill="white"/>
<path d="M58.4454 21.0717C58.4454 17.2522 60.6052 14.5921 64.6749 14.5921C67.4486 14.5921 69.5175 16.1609 69.5175 17.7069C69.5175 18.6618 68.8127 19.1392 67.9715 19.1392C66.4028 19.1392 66.9711 17.184 64.5839 17.184C63.288 17.184 61.7647 18.0707 61.7647 21.0717C61.7647 23.1406 62.7424 24.482 64.5612 24.482C66.8802 24.482 66.38 22.3449 68.1306 22.3449C68.9719 22.3449 69.5175 22.9588 69.5175 23.6181C69.5175 25.0731 67.8806 27.0739 64.4703 27.0739C60.3779 27.0739 58.4454 24.5502 58.4454 21.0717Z" fill="white"/>
<path d="M72.7484 20.8216C72.7484 22.8451 73.5896 24.6184 75.5676 24.6184C77.5456 24.6184 78.3868 22.8451 78.3868 20.8216C78.3868 18.6618 77.5001 17.0476 75.5676 17.0476C73.6351 17.0476 72.7484 18.6618 72.7484 20.8216ZM69.4291 20.8216C69.4291 17.3204 71.5662 14.5921 75.5676 14.5921C79.569 14.5921 81.7061 17.3204 81.7061 20.8216C81.7061 24.141 80.0919 27.0739 75.5676 27.0739C71.0433 27.0739 69.4291 24.141 69.4291 20.8216Z" fill="white"/>
<path d="M82.8953 24.5957V12.5914C82.8953 10.9318 83.7593 10.4088 85.0779 10.4088H90.0342C92.7625 10.4088 96.0136 11.0227 96.0136 14.6376C96.0136 16.0245 95.2633 17.3431 93.7173 17.957V18.0025C95.4452 18.4572 96.582 19.6849 96.582 21.9357C96.582 25.3687 93.7855 26.7783 90.5571 26.7783H85.0779C83.7593 26.7783 82.8953 26.2554 82.8953 24.5957ZM86.6239 19.503V23.9136H89.7614C91.2164 23.9136 92.8534 23.6181 92.8534 21.731C92.8534 19.7531 91.1255 19.503 89.3067 19.503H86.6239ZM86.6239 13.1371V17.1385H89.6932C91.4438 17.1385 92.285 16.4337 92.285 15.1378C92.285 13.5691 90.9664 13.1371 89.5795 13.1371H86.6239Z" fill="white"/>
<path d="M108.556 18.0025V23.5726C108.556 24.9595 108.897 25.2778 108.897 25.8007C108.897 26.5509 108.192 27.0739 107.397 27.0739C105.964 27.0739 105.487 26.1644 105.441 25.1414C104.146 26.5737 102.645 27.0739 100.894 27.0739C99.0074 27.0739 97.1431 25.7779 97.1431 23.6863C97.1431 20.9353 99.2347 20.1623 101.781 19.8667L103.805 19.6394C104.6 19.5485 105.237 19.3666 105.237 18.4117C105.237 17.4568 104.259 17.0476 103.145 17.0476C100.69 17.0476 100.622 18.8664 99.303 18.8664C98.4617 18.8664 97.8934 18.2753 97.8934 17.5932C97.8934 16.2746 99.7577 14.5921 103.168 14.5921C106.351 14.5921 108.556 15.6152 108.556 18.0025ZM105.237 22.4813V21.1854C104.873 21.5264 104.191 21.6401 103.805 21.7083L102.6 21.8902C101.213 22.0948 100.462 22.5268 100.462 23.5271C100.462 24.2774 101.167 24.8913 102.304 24.8913C104.123 24.8913 105.237 23.709 105.237 22.4813Z" fill="white"/>
<path d="M109.541 18.298C109.541 15.5925 112.224 14.5921 114.52 14.5921C117.044 14.5921 119.59 15.5925 119.59 17.1158C119.59 17.8888 119.067 18.5708 118.203 18.5708C116.908 18.5708 116.862 17.0476 114.77 17.0476C113.611 17.0476 112.861 17.3659 112.861 18.0707C112.861 18.8437 113.611 19.0255 114.634 19.2529L116.021 19.5712C117.908 20.0032 120.159 20.7989 120.159 23.1179C120.159 25.8234 117.544 27.0739 115.043 27.0739C112.042 27.0739 109.541 25.7325 109.541 24.0955C109.541 23.368 109.951 22.7087 110.883 22.7087C112.315 22.7087 112.451 24.7549 114.907 24.7549C116.089 24.7549 116.839 24.2319 116.839 23.5499C116.839 22.7087 116.112 22.5723 114.93 22.2767L112.974 21.7993C111.042 21.3218 109.541 20.5261 109.541 18.298Z" fill="white"/>
<path d="M120.911 25.4142V11.773C120.911 10.6817 121.571 10.1133 122.571 10.1133C123.572 10.1133 124.231 10.6817 124.231 11.773V19.3211L127.914 15.2287C128.255 14.865 128.687 14.5921 129.187 14.5921C129.937 14.5921 130.756 15.2515 130.756 16.0927C130.756 16.6838 130.551 16.8657 130.256 17.184L127.8 19.7531L131.256 24.3911C131.37 24.5502 131.597 24.914 131.597 25.4596C131.597 26.3009 130.915 27.0739 130.028 27.0739C129.21 27.0739 128.778 26.6646 128.528 26.3009L125.39 21.8675L124.231 22.8906V25.4142C124.231 26.5055 123.572 27.0739 122.571 27.0739C121.571 27.0739 120.911 26.5055 120.911 25.4142Z" fill="white"/>
<path d="M142.081 21.4582H134.578C134.578 23.2088 135.715 24.482 137.647 24.482C140.148 24.482 140.148 22.8451 141.489 22.8451C142.285 22.8451 142.854 23.5271 142.854 24.141C142.854 26.1417 139.648 27.0739 137.647 27.0739C133.009 27.0739 131.259 23.9364 131.259 21.049C131.259 17.184 133.6 14.5921 137.534 14.5921C141.353 14.5921 143.536 17.2977 143.536 20.0259C143.536 21.1627 143.195 21.4582 142.081 21.4582ZM134.578 19.5485H140.398C140.216 18.0252 139.08 16.9112 137.602 16.9112C135.942 16.9112 134.942 17.9342 134.578 19.5485Z" fill="white"/>
<path d="M145.18 24.1183V17.0703H144.611C143.679 17.0703 143.292 16.7065 143.292 15.979C143.292 15.2515 143.679 14.8877 144.611 14.8877H145.18V12.8643C145.18 11.773 145.839 11.2046 146.839 11.2046C147.84 11.2046 148.499 11.773 148.499 12.8643V14.8877H149.499C150.477 14.8877 151 15.1833 151 15.979C151 16.7747 150.477 17.0703 149.499 17.0703H148.499V23.709C148.499 24.2092 148.772 24.482 149.363 24.482H149.84C150.568 24.482 151 24.8913 151 25.5961C151 26.5509 150.181 27.0739 148.59 27.0739C146.18 27.0739 145.18 26.0735 145.18 24.1183Z" fill="white"/>
</g>
<defs>
<filter id="filter0_d_1066_5380" x="44.6616" y="10.1133" width="107.059" height="18.582" filterUnits="userSpaceOnUse" color-interpolation-filters="sRGB">
<feFlood flood-opacity="0" result="BackgroundImageFix"/>
<feColorMatrix in="SourceAlpha" type="matrix" values="0 0 0 0 0 0 0 0 0 0 0 0 0 0 0 0 0 0 127 0" result="hardAlpha"/>
<feOffset dy="0.900867"/>
<feGaussianBlur stdDeviation="0.360347"/>
<feComposite in2="hardAlpha" operator="out"/>
<feColorMatrix type="matrix" values="0 0 0 0 0 0 0 0 0 0 0 0 0 0 0 0 0 0 0.25 0"/>
<feBlend mode="normal" in2="BackgroundImageFix" result="effect1_dropShadow_1066_5380"/>
<feBlend mode="normal" in="SourceGraphic" in2="effect1_dropShadow_1066_5380" result="shape"/>
</filter>
</defs>
</svg>
