<svg width="32" height="32" viewBox="0 0 32 32" fill="none" xmlns="http://www.w3.org/2000/svg">
<g clip-path="url(#clip0_295_3264)">
<rect width="32" height="32" rx="8" fill="white"/>
<path d="M20.443 13.1743C18.352 12.0048 14.9958 10.1268 9.79018 7.21199C9.43922 6.9802 9.03541 6.94983 8.68652 7.06792L17.618 15.9994L20.443 13.1743Z" fill="#32BBFF"/>
<path d="M8.68639 7.06787C8.621 7.09002 8.55737 7.11674 8.49652 7.14901C8.11124 7.35742 7.82812 7.75845 7.82812 8.26564V23.733C7.82812 24.2402 8.1112 24.6412 8.49652 24.8496C8.55727 24.8818 8.62086 24.9087 8.68618 24.9309L17.6178 15.9993L8.68639 7.06787Z" fill="#32BBFF"/>
<path d="M17.6177 15.9995L8.68604 24.9311C9.03503 25.0501 9.43884 25.022 9.78991 24.7869C14.8383 21.96 18.1566 20.1042 20.2718 18.9247C20.3307 18.8916 20.3884 18.8593 20.4454 18.8273L17.6177 15.9995Z" fill="#32BBFF"/>
<path d="M7.82812 15.9995V23.7332C7.82812 24.2404 8.1112 24.6414 8.49652 24.8498C8.55727 24.882 8.62086 24.9088 8.68618 24.9311L17.6178 15.9995H7.82812Z" fill="#2C9FD9"/>
<path d="M9.79012 7.21192C9.37334 6.93672 8.88186 6.94456 8.49658 7.14902L17.4823 16.1348L20.4429 13.1742C18.3519 12.0047 14.9958 10.1267 9.79012 7.21192Z" fill="#29CC5E"/>
<path d="M17.4824 15.8643L8.49658 24.85C8.88189 25.0545 9.37334 25.0663 9.79012 24.7871C14.8385 21.9602 18.1568 20.1045 20.272 18.925C20.3309 18.8919 20.3886 18.8595 20.4456 18.8275L17.4824 15.8643Z" fill="#D93F21"/>
<path d="M24.1722 15.9994C24.1722 15.5709 23.9559 15.1384 23.5273 14.8986C23.5273 14.8986 22.7258 14.4513 20.269 13.0771L17.3467 15.9994L20.2718 18.9246C22.7017 17.5603 23.5273 17.1003 23.5273 17.1003C23.9559 16.8605 24.1722 16.428 24.1722 15.9994Z" fill="#FFD500"/>
<path d="M23.5273 17.1004C23.9559 16.8606 24.1722 16.4281 24.1722 15.9995H17.3467L20.2718 18.9247C22.7017 17.5604 23.5273 17.1004 23.5273 17.1004Z" fill="#FFAA00"/>
<rect x="0.5" y="0.5" width="31" height="31" rx="7.5" stroke="#D9E0FB"/>
</g>
<defs>
<clipPath id="clip0_295_3264">
<rect width="32" height="32" rx="8" fill="white"/>
</clipPath>
</defs>
</svg>
